<svg aria-hidden="true" style="position:absolute;width:0;height:0" width="24" height="24" xmlns="http://www.w3.org/2000/svg" overflow="hidden"><defs><symbol id="search" viewBox="0 0 24 24"><path d="m24.167 21.591-5.44-5.44a10.05 10.05 0 0 0 2.014-6.048C20.741 4.533 16.209 0 10.638 0 5.068 0 .535 4.532.535 10.103c0 5.57 4.532 10.103 10.103 10.103a10.05 10.05 0 0 0 6.047-2.014l5.44 5.44a1.446 1.446 0 0 0 2.042-2.041ZM3.421 10.103a7.216 7.216 0 1 1 7.217 7.217 7.225 7.225 0 0 1-7.217-7.217Z"/></symbol><symbol id="empty-rating" viewBox="0 0 24 24"><path fill-rule="evenodd" clip-rule="evenodd" d="M12 22c5.523 0 10-4.477 10-10S17.523 2 12 2 2 6.477 2 12s4.477 10 10 10Zm0 2c6.627 0 12-5.373 12-12S18.627 0 12 0 0 5.373 0 12s5.373 12 12 12Z"/></symbol><symbol id="full-rating" viewBox="0 0 24 24"><path d="M24 12c0 6.627-5.373 12-12 12S0 18.627 0 12 5.373 0 12 0s12 5.373 12 12Z"/></symbol><symbol id="half-rating" viewBox="0 0 24 24"><path fill-rule="evenodd" clip-rule="evenodd" d="M12 22c5.523 0 10-4.477 10-10S17.523 2 12 2 2 6.477 2 12s4.477 10 10 10Zm0 2c6.627 0 12-5.373 12-12S18.627 0 12 0 0 5.373 0 12s5.373 12 12 12Z"/><path d="M12.478 0c-1.507 0-3 .31-4.392.913a11.459 11.459 0 0 0-3.724 2.602C2.209 5.765 1 8.817 1 12s1.21 6.235 3.362 8.485a11.46 11.46 0 0 0 3.724 2.602c1.392.603 2.885.913 4.392.913V0Z"/></symbol><symbol id="calendar" viewBox="0 0 24 24"><path d="M7.186 5.023a.843.843 0 0 1-.837-.837V.837c0-.457.38-.837.837-.837.458 0 .837.38.837.837v3.349c0 .458-.38.837-.837.837Zm8.93 0a.843.843 0 0 1-.837-.837V.837c0-.457.38-.837.837-.837.458 0 .837.38.837.837v3.349c0 .458-.379.837-.837.837ZM7.744 14.79c-.145 0-.29-.034-.424-.09a1.154 1.154 0 0 1-.368-.234 1.152 1.152 0 0 1-.324-.793c0-.145.033-.29.09-.424a1.29 1.29 0 0 1 .234-.368c.111-.1.223-.179.368-.235a1.14 1.14 0 0 1 1.217.235c.2.212.323.502.323.792 0 .067-.01.145-.022.223a.71.71 0 0 1-.067.201.847.847 0 0 1-.1.201c-.034.056-.09.112-.134.168a1.174 1.174 0 0 1-.793.324Zm3.907 0c-.145 0-.29-.033-.424-.089a1.153 1.153 0 0 1-.368-.234 1.153 1.153 0 0 1-.324-.793c0-.145.033-.29.09-.424.055-.134.133-.257.234-.368.111-.1.223-.179.368-.235a1.119 1.119 0 0 1 1.217.235c.2.212.323.502.323.792 0 .067-.01.145-.022.224a.711.711 0 0 1-.067.2.85.85 0 0 1-.1.201c-.034.056-.09.112-.134.168-.212.2-.503.324-.793.324Zm3.907 0c-.145 0-.29-.033-.424-.089a1.153 1.153 0 0 1-.368-.234l-.134-.168a.849.849 0 0 1-.1-.2.71.71 0 0 1-.068-.201 1.672 1.672 0 0 1-.022-.224c0-.29.123-.58.324-.792.111-.1.223-.179.368-.235a1.115 1.115 0 0 1 1.217.235c.2.212.323.502.323.792 0 .067-.01.145-.022.224a.711.711 0 0 1-.067.2.846.846 0 0 1-.1.201c-.034.056-.09.112-.134.168-.212.2-.503.324-.793.324Zm-7.814 3.909c-.145 0-.29-.034-.424-.09a1.29 1.29 0 0 1-.368-.234 1.174 1.174 0 0 1-.324-.793c0-.145.033-.29.09-.424.055-.145.133-.268.234-.368.413-.413 1.172-.413 1.585 0 .2.212.323.502.323.792 0 .29-.122.58-.323.793-.212.2-.503.324-.793.324Zm3.907 0c-.29 0-.58-.123-.792-.324a1.174 1.174 0 0 1-.324-.793c0-.145.033-.29.09-.424.055-.145.133-.268.234-.368.413-.413 1.172-.413 1.585 0 .1.1.178.223.234.368.056.134.09.28.09.424 0 .29-.123.58-.324.793-.212.2-.503.324-.793.324Zm3.907 0c-.29 0-.58-.123-.792-.324a1.041 1.041 0 0 1-.235-.368 1.11 1.11 0 0 1-.09-.425c0-.145.034-.29.09-.424.056-.145.134-.268.235-.368.256-.257.647-.38 1.004-.302a.673.673 0 0 1 .212.067.843.843 0 0 1 .201.1c.056.034.112.09.168.135.2.212.323.502.323.792 0 .29-.122.58-.323.793-.212.2-.503.324-.793.324Zm5.582-9.11H2.163a.843.843 0 0 1-.837-.836c0-.458.38-.838.837-.838H21.14c.457 0 .837.38.837.838 0 .457-.38.837-.837.837Z"/><path d="M16.116 24h-8.93C3.112 24 .767 21.656.767 17.581V8.093c0-4.074 2.345-6.419 6.42-6.419h8.93c4.074 0 6.418 2.345 6.418 6.419v9.488c0 4.075-2.344 6.419-6.419 6.419ZM7.186 3.349c-3.192 0-4.744 1.551-4.744 4.744v9.488c0 3.193 1.551 4.745 4.744 4.745h8.93c3.193 0 4.744-1.552 4.744-4.745V8.093c0-3.193-1.551-4.744-4.744-4.744h-8.93Z"/></symbol></defs></svg>