<svg width="33" height="33" viewBox="0 0 33 33" fill="none" xmlns="http://www.w3.org/2000/svg">
<path d="M31.5441 13.6675H30.3798C30.3796 13.6087 30.3671 13.5506 30.3431 13.4969C30.3192 13.4432 30.2843 13.3951 30.2406 13.3557C30.1923 11.5626 29.7916 9.79652 29.0614 8.15815V5.6188C29.0607 5.23291 28.9069 4.86307 28.6339 4.59036C28.3609 4.31765 27.9909 4.16434 27.605 4.16405H26.4389C26.4391 4.10789 26.4281 4.05225 26.4067 4.00034C26.3853 3.94842 26.3538 3.90126 26.3141 3.86154C26.2744 3.82183 26.2272 3.79036 26.1753 3.76893C26.1234 3.74751 26.0677 3.73655 26.0116 3.7367C25.9841 3.7367 25.9599 3.7477 25.9335 3.7521C23.4716 1.4278 20.1534 0 16.5003 0C12.565 0 9.01795 1.6566 6.51156 4.3065H5.53859C5.15265 4.30665 4.78254 4.45991 4.50949 4.73265C4.23643 5.00539 4.08275 5.37532 4.08217 5.76125V7.8419C3.26109 9.56727 2.81067 11.4455 2.75995 13.3557C2.71687 13.3953 2.68244 13.4434 2.65878 13.497C2.63512 13.5505 2.62275 13.6084 2.62244 13.667H1.45642C1.07043 13.6675 0.700404 13.8211 0.427413 14.094C0.154423 14.3669 0.000727304 14.7368 0 15.1228V18.3078C0.000873693 18.6936 0.154686 19.0632 0.427708 19.3357C0.70073 19.6082 1.07068 19.7614 1.45642 19.7615H4.13112C4.74107 21.0109 5.53659 22.1607 6.49066 23.1721H5.39669C5.01056 23.1719 4.64017 23.325 4.36688 23.5978C4.09358 23.8706 3.93975 24.2407 3.93917 24.6268V27.8119C3.94004 28.1978 4.094 28.5676 4.36726 28.8401C4.64052 29.1127 5.01075 29.2656 5.39669 29.2655H7.37837L5.50009 33H6.92682L8.8073 29.2424C9.14946 29.1898 9.46159 29.0167 9.68738 28.7543C9.91318 28.4919 10.0378 28.1575 10.0388 27.8113V26.961L10.498 26.1112C11.5961 26.6485 12.7613 27.0356 13.9625 27.2624C13.8028 27.3975 13.6743 27.5657 13.5859 27.7553C13.4975 27.945 13.4513 28.1515 13.4505 28.3607V31.5447C13.4511 31.9307 13.6047 32.3007 13.8778 32.5735C14.1508 32.8463 14.5209 32.9997 14.9069 33H18.0931C18.479 32.9996 18.8491 32.8461 19.1221 32.5733C19.3951 32.3005 19.5488 31.9306 19.5495 31.5447V28.3607C19.5495 27.9196 19.3482 27.5297 19.0369 27.2624C20.2447 27.0346 21.4162 26.6446 22.5196 26.103L22.8182 26.6558V27.6683C22.8182 28.4246 23.4023 29.0416 24.1432 29.1093L26.0737 33H27.5005L25.5666 29.122H27.4614C27.8473 29.1217 28.2173 28.9684 28.4904 28.6956C28.7634 28.4229 28.9171 28.0531 28.9178 27.6672V24.4833C28.9175 24.0972 28.764 23.727 28.4909 23.4541C28.2178 23.1812 27.8475 23.028 27.4614 23.028L26.6457 23.0285C27.54 22.0521 28.2885 20.9518 28.8683 19.7615H31.5436C31.9294 19.7616 32.2995 19.6086 32.5726 19.3361C32.8457 19.0635 32.9994 18.6937 33 18.3078V15.1228C32.9999 14.7368 32.8464 14.3666 32.5734 14.0937C32.3004 13.8208 31.9302 13.6675 31.5441 13.6675ZM0.857464 16.715V15.1228C0.857464 14.7917 1.12587 14.5244 1.45697 14.5244H2.7737C2.81492 15.2613 2.91553 15.9937 3.07455 16.7145L0.857464 16.715ZM27.6044 5.01985C27.9355 5.01985 28.205 5.28825 28.205 5.61935V6.5351C27.8789 6.00609 27.5173 5.49984 27.1226 5.01985H27.6044ZM26.6815 7.2105L23.8181 7.21105V7.20995L25.4363 5.59185C25.896 6.09552 26.3126 6.63698 26.6815 7.2105ZM24.4182 5.01985H24.4523L23.8181 5.654V5.61935C23.8181 5.28825 24.0877 5.01985 24.4182 5.01985ZM17.0503 1.66375C17.6003 1.69246 18.1477 1.75824 18.6888 1.86065C18.6893 1.86835 18.6937 1.8744 18.6937 1.88265V3.4749H17.0503V1.66375ZM17.0503 6.52135H18.0931C18.4789 6.52135 18.8489 6.36829 19.122 6.09575C19.395 5.82322 19.5488 5.45348 19.5495 5.0677V2.0504C21.1597 2.46716 22.6661 3.21285 23.9738 4.2405C23.6807 4.33357 23.4247 4.51719 23.2426 4.76495C23.0604 5.01271 22.9615 5.31185 22.9601 5.61935V6.512L19.2707 10.2014C18.6281 9.69729 17.8603 9.37785 17.0497 9.2774L17.0503 6.52135ZM19.5165 13.7594C19.5167 14.1921 19.4237 14.6198 19.244 15.0134C19.0642 15.4071 18.8019 15.7574 18.4748 16.0408L17.7152 14.6399C17.9016 14.3839 18.0021 14.0755 18.0024 13.7588C18.0024 13.3572 17.8428 12.9721 17.5589 12.6881C17.2749 12.4042 16.8898 12.2447 16.4882 12.2447C16.0866 12.2447 15.7015 12.4042 15.4175 12.6881C15.1335 12.9721 14.974 13.3572 14.974 13.7588C14.974 14.1031 15.0939 14.4171 15.287 14.6712L14.5307 16.0671C14.1948 15.7836 13.925 15.4301 13.7399 15.0314C13.5549 14.6327 13.4591 14.1984 13.4593 13.7588C13.4593 12.9556 13.7785 12.1853 14.3465 11.6174C14.9146 11.0494 15.6849 10.7304 16.4882 10.7305C17.2914 10.7306 18.0617 11.0497 18.6297 11.6177C19.1976 12.1858 19.5166 12.9561 19.5165 13.7594ZM17.4127 16.6424C16.8249 16.8318 16.1932 16.8364 15.6027 16.6557L16.3562 15.2598C16.4007 15.2636 16.4431 15.2729 16.4882 15.2729C16.5476 15.2729 16.6048 15.262 16.6625 15.2554L17.4127 16.6424ZM14.3079 1.8832C14.3079 1.87495 14.3123 1.8689 14.3129 1.8612C14.8536 1.75831 15.4006 1.69234 15.9503 1.66375V3.4749H14.3079V1.8832ZM13.4505 2.0504V5.06825C13.4512 5.45403 13.605 5.82377 13.878 6.0963C14.1511 6.36884 14.5211 6.5219 14.9069 6.5219H15.9503V9.2741C15.1369 9.37109 14.3655 9.68851 13.7194 10.1921L10.1812 6.6539V5.76125C10.18 5.41061 10.052 5.07224 9.82079 4.8086C9.5896 4.54496 9.27084 4.37385 8.92335 4.32685C10.2538 3.2554 11.797 2.47939 13.4505 2.0504ZM8.7248 5.16285C9.0559 5.16285 9.32541 5.43125 9.32541 5.76125V5.797L8.69125 5.16285H8.7248ZM7.56483 5.59185L9.32541 7.35295H6.2349C6.6236 6.72661 7.06876 6.13712 7.56483 5.59185ZM4.93908 5.76125C4.93908 5.43125 5.20859 5.16285 5.53969 5.16285H5.76465C5.47022 5.53126 5.19468 5.91437 4.93908 6.3107V5.76125ZM4.92093 10.2575C5.10959 10.3461 5.31749 10.3994 5.53969 10.3994H8.7248C9.11063 10.3995 9.48075 10.2465 9.75383 9.97396C10.0269 9.7014 10.1806 9.33158 10.1812 8.94575V8.20875L12.939 10.9664C12.4297 11.6116 12.1074 12.3842 12.0073 13.2H4.41382C4.45947 12.1803 4.63878 11.1958 4.92093 10.2575ZM5.24324 16.715H4.77683C4.59546 15.9971 4.48057 15.264 4.43362 14.525H4.64263C4.72136 14.5248 4.79934 14.5402 4.87213 14.5702C4.94493 14.6002 5.0111 14.6442 5.06687 14.6998C5.12264 14.7553 5.16692 14.8213 5.19718 14.894C5.22744 14.9667 5.24309 15.0446 5.24324 15.1234V16.715ZM5.73275 19.2621C5.95825 19.0058 6.0996 18.6747 6.0996 18.3078V15.1228C6.0996 14.817 6.0039 14.5343 5.8422 14.3H12.0045C12.1021 15.1178 12.423 15.893 12.9318 16.5407L7.56483 21.9082C6.83883 21.1118 6.22266 20.2219 5.73275 19.2621ZM9.1824 25.9364L9.02895 26.2196L4.79663 26.2185V24.6263C4.79663 24.2963 5.06613 24.0279 5.39724 24.0279H7.37122C7.93675 24.5304 8.54271 24.9855 9.18295 25.3886L9.1824 25.9364ZM10.1972 24.0641C10.0586 23.9789 9.91777 23.8959 9.78301 23.8057C9.59499 23.5353 9.32081 23.3368 9.0053 23.2424C8.77793 23.0647 8.55687 22.8791 8.34254 22.6859L13.7101 17.3184C13.7436 17.3448 13.781 17.3646 13.8151 17.3899L10.1972 24.0641ZM11.2823 24.6582L14.8898 17.9756C15.2312 18.1081 15.5875 18.198 15.9508 18.2435V25.8362C14.3309 25.7637 12.7427 25.3629 11.2823 24.6582ZM18.6937 29.9535H14.3074V28.3607C14.3074 28.0307 14.5758 27.7624 14.9069 27.7624H18.0931C18.4242 27.7624 18.6937 28.0307 18.6937 28.3607V29.9535ZM17.0503 25.8362V18.2396C17.4187 18.1919 17.7797 18.0984 18.125 17.9614L21.7364 24.6505C20.2708 25.359 18.6765 25.7625 17.0503 25.8362ZM22.9046 24.0114C22.8776 24.0279 22.849 24.0427 22.8226 24.0592L19.1948 17.3674C19.2228 17.3465 19.2536 17.33 19.2811 17.3085L24.6586 22.6859C24.5266 22.8069 24.3847 22.9163 24.2472 23.0307C23.9499 23.037 23.6617 23.1345 23.4216 23.3099C23.1815 23.4852 23.001 23.7301 22.9046 24.0114ZM27.462 23.8843C27.7931 23.8843 28.0626 24.1527 28.0626 24.4838V26.0761H23.9155L23.6751 25.6328V25.4809C24.4301 25.018 25.1389 24.4835 25.7916 23.8848L27.462 23.8843ZM25.4363 21.9082L20.0561 16.528C20.5592 15.8828 20.8765 15.1124 20.9735 14.3H27.1584C26.9967 14.5343 26.9009 14.817 26.9009 15.1228V18.3078C26.9009 18.6747 27.0423 19.0069 27.2678 19.2621C26.7777 20.2216 26.1618 21.1115 25.4363 21.9082ZM28.2232 16.715H27.7579V15.1228C27.7579 14.7917 28.0263 14.5244 28.3574 14.5244H28.5664C28.52 15.2637 28.4051 15.997 28.2232 16.715ZM20.9707 13.2C20.8708 12.3897 20.5517 11.622 20.0478 10.9796L22.9607 8.0674V8.8033C22.9614 9.18938 23.1153 9.55939 23.3886 9.83213C23.6618 10.1049 24.0321 10.2581 24.4182 10.258H27.6044C27.7634 10.258 27.9141 10.2256 28.0571 10.1783C28.3541 11.1403 28.5394 12.1523 28.5862 13.2H20.9707ZM32.1442 16.715H29.9265C30.0856 15.9943 30.1862 15.2619 30.2274 14.525H31.5441C31.6229 14.5248 31.7008 14.5402 31.7736 14.5702C31.8464 14.6002 31.9126 14.6442 31.9684 14.6998C32.0241 14.7553 32.0684 14.8213 32.0987 14.894C32.1289 14.9667 32.1446 15.0446 32.1447 15.1234L32.1442 16.715Z" fill="url(#paint0_linear_390_101)"/>
<defs>
<linearGradient id="paint0_linear_390_101" x1="16.5" y1="0" x2="16.5" y2="33" gradientUnits="userSpaceOnUse">
<stop stop-color="#01A96E"/>
<stop offset="1" stop-color="#005032"/>
</linearGradient>
</defs>
</svg>
