<svg width="30" height="20" viewBox="0 0 30 20" fill="none" xmlns="http://www.w3.org/2000/svg">
<path d="M20.3983 6.07873e-10C16.9172 0.00159753 12.9794 0.760016 9.44507 2.10961C5.9107 3.4592 3.06695 5.29029 1.53491 7.20295C-0.735529 10.0706 0.290567 12.4716 1.04997 14.2217L1.18818 14.541C1.97629 16.2411 2.96761 17.8807 4.15833 19.4535L4.5747 20L5.85647 19.4535C9.53746 17.8806 13.125 16.241 16.6054 14.541L17.2541 14.2155C20.7736 12.4655 25.5967 10.0706 27.8671 7.20295C29.3646 5.28923 29.4195 3.45721 28.0199 2.10744C26.6203 0.757677 23.8801 -2.47811e-05 20.3983 6.07873e-10ZM12.1333 10.4391C10.6838 10.4391 9.4539 10.2028 8.59914 9.76017C7.74437 9.31754 7.30313 8.68842 7.3312 7.95235C7.35927 7.21628 7.8554 6.40634 8.75685 5.62494C9.6583 4.84353 10.9246 4.12577 12.3956 3.56241C13.8665 2.99905 15.4762 2.61539 17.0209 2.45996C18.5656 2.30453 19.976 2.3843 21.0738 2.68919C22.1715 2.99408 22.9073 3.51039 23.1882 4.17283C23.469 4.83528 23.2822 5.6141 22.6514 6.41081C21.8055 7.47916 20.2222 8.50377 18.2497 9.25921C16.2771 10.0147 14.077 10.4391 12.1333 10.4391Z" fill="url(#paint0_linear_391_171)"/>
<path d="M13.5092 8.70123C15.8106 8.70123 18.4882 7.67576 19.4897 6.41078C20.4913 5.1458 19.4375 4.12033 17.1361 4.12033C14.8346 4.12033 12.157 5.1458 11.1555 6.41078C10.154 7.67576 11.2077 8.70123 13.5092 8.70123Z" fill="url(#paint1_linear_391_171)"/>
<defs>
<linearGradient id="paint0_linear_391_171" x1="20.4039" y1="2.84735e-09" x2="20.476" y2="20.2074" gradientUnits="userSpaceOnUse">
<stop stop-color="#D3D3D3" stop-opacity="0"/>
<stop offset="0.51823" stop-color="#A1A1A1"/>
<stop offset="1" stop-color="#5D5D5D"/>
</linearGradient>
<linearGradient id="paint1_linear_391_171" x1="17.1361" y1="4.12033" x2="17.1361" y2="8.70124" gradientUnits="userSpaceOnUse">
<stop stop-color="#E1E1E1" stop-opacity="0"/>
<stop offset="1" stop-color="#737373"/>
</linearGradient>
</defs>
</svg>
