<svg width="28" height="28" viewBox="0 0 28 28" fill="none" xmlns="http://www.w3.org/2000/svg">
<path d="M7.5 10.9973C6.80777 10.9973 6.13108 11.2026 5.55551 11.5872C4.97993 11.9718 4.53133 12.5184 4.26642 13.1579C4.00152 13.7975 3.9322 14.5012 4.06725 15.1801C4.2023 15.8591 4.53564 16.4827 5.02513 16.9722C5.51461 17.4617 6.13825 17.795 6.81718 17.9301C7.49612 18.0651 8.19985 17.9958 8.83939 17.7309C9.47894 17.466 10.0256 17.0174 10.4101 16.4418C10.7947 15.8662 11 15.1895 11 14.4973C11 13.5691 10.6313 12.6788 9.97487 12.0224C9.3185 11.3661 8.42826 10.9973 7.5 10.9973Z" fill="url(#paint0_linear_385_18)"/>
<path d="M23 11.9973H15C14.4696 11.9973 13.9609 12.208 13.5858 12.5831C13.2107 12.9582 13 13.4669 13 13.9973V19.9973H2V8.59733L14 2.13733L26.53 8.87733L27.47 7.11733L14.47 0.117333C14.3253 0.0402932 14.1639 0 14 0C13.8361 0 13.6747 0.0402932 13.53 0.117333L0.53 7.11733C0.370321 7.20236 0.236697 7.32911 0.143364 7.48408C0.0500301 7.63904 0.00048271 7.81643 0 7.99733V27.9973H2V21.9973H26V27.9973H28V16.9973C28 15.6713 27.4732 14.3995 26.5355 13.4618C25.5979 12.5241 24.3261 11.9973 23 11.9973Z" fill="url(#paint1_linear_385_18)"/>
<defs>
<linearGradient id="paint0_linear_385_18" x1="14" y1="0" x2="14" y2="27.9973" gradientUnits="userSpaceOnUse">
<stop stop-color="#01A96E"/>
<stop offset="1" stop-color="#005032"/>
</linearGradient>
<linearGradient id="paint1_linear_385_18" x1="14" y1="0" x2="14" y2="27.9973" gradientUnits="userSpaceOnUse">
<stop stop-color="#01A96E"/>
<stop offset="1" stop-color="#005032"/>
</linearGradient>
</defs>
</svg>
