<svg width="39" height="18" viewBox="0 0 39 18" fill="none" xmlns="http://www.w3.org/2000/svg">
<path d="M13.6767 0.763602C12.745 1.2944 12.1306 1.93694 11.8035 2.66329C11.407 3.52002 11.4467 4.48849 11.8828 5.39177C12.745 7.17972 15.1436 8.72555 18.1863 8.89317C18.2557 8.89317 18.3251 8.90248 18.4044 8.90248C18.4242 8.93042 18.444 8.97698 18.4738 9.00491C20.1389 11.8917 21.794 14.8064 23.4393 17.7491C24.48 17.9167 25.3324 17.7956 25.9072 17.5535C26.5118 17.3021 27.0767 16.8086 27.3741 16.0543C22.8248 10.8487 18.2656 5.74564 13.6767 0.763602ZM36.6114 0C33.42 1.48064 30.1988 2.94266 26.9677 4.39537C25.8874 4.88891 25.5108 5.38246 25.4909 5.92257C25.4909 5.99707 25.481 6.07157 25.4711 6.14606C25.3423 6.20194 25.2035 6.25781 25.0548 6.323C24.0043 6.77929 22.9239 7.2449 21.8436 7.71052C22.1608 8.06438 22.4977 8.41824 22.8149 8.78142C23.8754 8.3065 24.926 7.82226 25.9766 7.33803C26.1154 7.28215 26.2442 7.21697 26.383 7.1611C26.4821 7.17972 26.5713 7.20766 26.6704 7.2449C27.4137 7.4684 28.2958 7.44046 29.3068 6.99347C32.5478 5.54077 35.7788 4.07875 39 2.60742C38.8414 2.43049 38.6828 2.26287 38.5243 2.07662C36.4429 3.04509 34.3417 3.99494 32.2405 4.94479C32.0918 4.78648 31.9432 4.62817 31.8044 4.46055C33.9056 3.51071 35.9969 2.56086 38.0783 1.6017C37.9197 1.40614 37.7413 1.22921 37.5728 1.05228C35.4914 2.00213 33.4001 2.96128 31.2989 3.92044C31.1602 3.75282 31.0115 3.59452 30.8629 3.43621C32.9541 2.47705 35.0454 1.5272 37.1268 0.568045C36.9682 0.372489 36.7997 0.186244 36.6114 0ZM17.3141 9.61952C11.8729 11.901 6.3721 14.1639 0.871348 16.4081C0.0586238 17.1159 -0.119779 17.5442 0.0685351 17.7677C0.266761 17.9912 0.910993 18.0843 2.17964 17.9074C7.5119 15.598 12.8243 13.2699 18.0971 10.9139C17.8494 10.4762 17.5817 10.0479 17.3141 9.61952Z" fill="url(#paint0_linear_387_76)"/>
<defs>
<linearGradient id="paint0_linear_387_76" x1="11" y1="-4" x2="14" y2="32.5" gradientUnits="userSpaceOnUse">
<stop stop-color="#D8D8D8" stop-opacity="0"/>
<stop offset="0.669278" stop-color="#737373"/>
</linearGradient>
</defs>
</svg>
