<svg width="46" height="24" viewBox="0 0 46 24" fill="none" xmlns="http://www.w3.org/2000/svg">
<path d="M43.5 9.04306C43.03 9.06306 42.55 9.07306 42.06 9.09306C42.09 9.04306 42.11 9.01306 42.13 8.97306C42.11 8.94306 42.11 8.90306 42.08 8.87306C43.07 7.59306 43.61 6.33306 43.68 5.18306C44.18 4.56306 44.67 3.95306 45.15 3.34306C45.37 3.06306 45.39 2.81306 45.22 2.63306C45.06 2.43306 44.7 2.34306 44.22 2.37306C43.74 2.39306 43.27 2.40306 42.78 2.43306C42.81 2.39306 42.83 2.35306 42.84 2.32306C42.84 2.27306 42.83 2.25306 42.81 2.22306C42.78 2.19306 42.74 2.18306 42.69 2.15306C42.65 2.14306 42.58 2.14306 42.51 2.14306C42.48 2.14306 42.44 2.15306 42.41 2.16306C40.75 0.623057 37.51 -0.176943 33.05 0.0330574C28.23 0.253057 22.92 1.60306 18.31 3.58306C17.91 3.59306 17.51 3.60306 17.11 3.62306C16.64 3.65306 16.1 3.77306 15.6 3.97306C15.1 4.17306 14.7 4.44306 14.47 4.70306C14.07 5.18306 13.66 5.66306 13.25 6.13306C11.23 7.35306 9.57 8.65306 8.37 9.96306C8.29 9.98306 8.23 10.0231 8.16 10.0631C8.1 10.0931 8.06 10.1331 8.03 10.1731C7.55 10.1931 7.07 10.2031 6.59 10.2131C6.12 10.2331 5.57 10.3631 5.07 10.5531C4.58 10.7431 4.17 10.9931 3.94 11.2631C3.32 11.9731 2.68 12.6931 2.05 13.4031C1.83 13.6731 1.8 13.9131 1.96 14.0931C2.14 14.2631 2.5 14.3631 2.97 14.3531C4.06 14.3231 5.15 14.2931 6.25 14.2631C6.25 15.1031 6.54 15.8531 7.1 16.5131C6.66 16.5331 6.22 16.5431 5.76 16.5431C5.29 16.5631 4.75 16.6631 4.24 16.8531C3.75 17.0531 3.33 17.3131 3.11 17.5631C2.48 18.2831 1.84 19.0031 1.19 19.7231C0.98 19.9831 0.94 20.2231 1.1 20.4031C1.28 20.5831 1.65 20.6831 2.12 20.6731C2.94 20.6631 3.75 20.6531 4.55 20.6431C3.04 21.5031 1.52 22.3531 0 23.2031C0.59 23.1931 1.17 23.1931 1.75 23.1831C3.28 22.3231 4.79 21.4631 6.31 20.6031C6.77 20.5531 7.25 20.4331 7.68 20.2531C8.13 20.0731 8.47 19.8331 8.67 19.6031C8.85 19.4031 9.02 19.2131 9.19 19.0231C9.55 18.8231 9.91 18.6331 10.26 18.4331C11.29 18.7731 12.5 19.0231 13.84 19.1531C13.57 19.2431 13.31 19.3631 13.08 19.4931C12.86 19.6331 12.68 19.7731 12.56 19.9131C11.93 20.6431 11.29 21.3731 10.65 22.1031C10.42 22.3731 10.38 22.6231 10.54 22.8031C10.73 22.9831 11.1 23.0831 11.56 23.0831C12.87 23.0731 14.18 23.0731 15.49 23.0531C15.96 23.0431 16.51 22.9331 17.02 22.7431C17.51 22.5531 17.91 22.2931 18.15 22.0231C18.79 21.2831 19.42 20.5531 20.05 19.8131C20.32 19.5031 20.31 19.2331 20.08 19.0531C21.71 18.8731 23.39 18.5731 25.05 18.1731C25.08 18.2931 25.1 18.4231 25.1 18.5531C24.9 18.8031 24.69 19.0331 24.5 19.2631C24.04 19.7931 24.4 20.2231 25.27 20.2531C25.29 21.1531 25.31 22.0531 25.32 22.9531C25.91 22.9531 26.49 22.9431 27.08 22.9431C27.06 22.0331 27.04 21.1431 27.01 20.2431C27.79 20.2231 28.57 20.2131 29.35 20.2031C29.82 20.2031 30.37 20.0831 30.88 19.8831C31.36 19.6931 31.77 19.4331 32 19.1431C32.64 18.3931 33.26 17.6431 33.89 16.8831C34.12 16.6131 34.16 16.3531 33.98 16.1631C33.81 15.9831 33.44 15.8731 32.98 15.8831C32.64 15.8931 32.3 15.9031 31.96 15.9031C33.65 15.1931 35.21 14.3931 36.62 13.5231C37.73 13.4931 38.83 13.4631 39.91 13.4331C40.38 13.4331 40.93 13.3031 41.43 13.1031C41.92 12.8931 42.33 12.6231 42.56 12.3431C43.19 11.5731 43.82 10.8131 44.43 10.0431C44.65 9.76306 44.68 9.50306 44.51 9.32306C44.33 9.13306 43.98 9.03306 43.5 9.04306ZM4.04 12.3031C4.36 11.9431 4.68 11.5931 4.98 11.2331C5.18 11.0131 5.67 10.8131 6.08 10.8031C6.62 10.7831 7.16 10.7731 7.7 10.7531C7.31 11.2631 6.99 11.7431 6.76 12.2331C5.86 12.2631 4.95 12.2731 4.04 12.3031ZM43.72 2.98306C44.12 2.96306 44.3 3.15306 44.11 3.38306C43.93 3.60306 43.76 3.82306 43.57 4.04306C43.47 3.68306 43.33 3.33306 43.13 3.00306C43.34 3.00306 43.53 2.99306 43.72 2.98306ZM41.31 4.61306C40.14 4.65306 38.97 4.70306 37.8 4.75306C37.8 4.75306 37.8 4.75306 37.8 4.74306C38.78 4.33306 39.75 3.92306 40.72 3.51306C41 3.84306 41.19 4.21306 41.31 4.61306ZM39.82 3.14306C39.84 3.14306 39.85 3.14306 39.87 3.14306C39.48 3.30306 39.1 3.47306 38.7 3.63306C38.72 3.62306 38.73 3.61306 38.73 3.60306C38.92 3.37306 39.41 3.16306 39.82 3.14306ZM32.76 1.15306C33.41 1.15306 34.04 1.16306 34.64 1.21306C34.64 1.21306 34.64 1.21639 34.64 1.22306C34.33 1.59306 34.02 1.98306 33.71 2.35306C33.05 2.38306 32.38 2.41306 31.7 2.44306C32.06 2.01306 32.41 1.58306 32.76 1.15306ZM29.92 4.59306C30.34 4.57306 30.76 4.56306 31.19 4.54306C31.66 4.52306 32.2 4.39306 32.7 4.19306C33.19 3.98306 33.6 3.71306 33.82 3.43306C34.41 2.71306 35 2.00306 35.57 1.29306C37.31 1.50306 38.72 1.95306 39.72 2.62306C39.32 2.69306 38.89 2.84306 38.53 3.03306C38.16 3.22306 37.86 3.43306 37.68 3.65306C37.52 3.86306 37.35 4.08306 37.16 4.29306C34.94 5.22306 32.71 6.16306 30.48 7.09306C29.98 6.75306 29.24 6.56306 28.29 6.53306C28.84 5.88306 29.38 5.24306 29.92 4.59306ZM28.68 9.58306C28.42 9.89306 28.07 10.1931 27.61 10.4831C27.17 10.7631 26.63 11.0231 26.06 11.2331C26.03 10.9131 25.99 10.5931 25.96 10.2731C26.35 10.0831 26.65 9.86306 26.83 9.63306C27.07 9.35306 27.1 9.10306 26.92 8.90306C26.73 8.72306 26.35 8.63306 25.86 8.64306C25.36 8.66306 24.81 8.79306 24.28 8.99306C23.78 9.21306 23.35 9.47306 23.11 9.75306C22.91 10.0031 22.87 10.2131 22.95 10.3831C22.37 10.7131 21.79 11.0431 21.21 11.3831C20.96 11.2031 20.84 10.9731 20.84 10.6931C20.85 10.4231 20.99 10.1231 21.25 9.81306C21.72 9.25306 22.57 8.71306 23.61 8.28306C24.64 7.86306 25.76 7.61306 26.75 7.58306C27.74 7.55306 28.5 7.73306 28.86 8.10306C29.22 8.49306 29.16 9.01306 28.68 9.58306ZM24.4 11.6831C23.57 11.8431 22.8 11.8631 22.18 11.7531C22.76 11.4231 23.34 11.0931 23.92 10.7531C23.98 10.7631 24.02 10.7631 24.08 10.7631C24.15 10.7631 24.22 10.7531 24.31 10.7431C24.34 11.0531 24.37 11.3731 24.4 11.6831ZM29.26 1.47306C29.26 1.46306 29.29 1.45306 29.29 1.45306C30.01 1.35306 30.72 1.27306 31.41 1.22306C31.06 1.64306 30.71 2.07306 30.35 2.50306C29.68 2.53306 29 2.56306 28.33 2.58306C28.65 2.21306 28.96 1.84306 29.26 1.47306ZM28.12 1.64306C27.54 2.33306 26.96 3.04306 26.37 3.75306C26.13 4.02306 26.1 4.27306 26.27 4.45306C26.46 4.62306 26.82 4.72306 27.28 4.69306C27.71 4.67306 28.13 4.66306 28.57 4.64306C28.04 5.28306 27.5 5.94306 26.96 6.58306C25.89 6.69306 24.77 6.94306 23.67 7.32306C22.92 6.55306 22.18 5.78306 21.42 5.02306C21.61 4.81306 21.77 4.61306 21.94 4.40306C22.15 4.16306 22.19 3.93306 22.07 3.75306C21.93 3.58306 21.65 3.48306 21.25 3.47306C23.51 2.65306 25.84 2.02306 28.12 1.64306ZM20.51 4.06306C20.92 4.04306 21.09 4.22306 20.9 4.44306C20.89 4.45306 20.88 4.45306 20.88 4.46306C20.74 4.33306 20.61 4.19306 20.47 4.06306C20.48 4.06306 20.49 4.06306 20.51 4.06306ZM18.84 4.41306C19.21 4.79306 19.58 5.17306 19.96 5.55306C18.7 5.59306 17.44 5.64306 16.17 5.70306C17.02 5.24306 17.9 4.82306 18.84 4.41306ZM15.52 4.67306C15.71 4.43306 16.2 4.24306 16.6 4.23306C16.7 4.21306 16.81 4.21306 16.89 4.21306C16.31 4.48306 15.74 4.76306 15.19 5.04306C15.3 4.92306 15.42 4.79306 15.52 4.67306ZM12.85 7.75306C13.02 7.80306 13.25 7.83306 13.52 7.82306C14.83 7.78306 16.14 7.73306 17.43 7.68306C17.92 7.66306 18.46 7.55306 18.94 7.34306C19.44 7.14306 19.85 6.88306 20.08 6.61306C20.23 6.44306 20.38 6.27306 20.51 6.10306C21.1 6.70306 21.69 7.30306 22.26 7.89306C21.25 8.37306 20.4 8.91306 19.79 9.49306C16.7 9.59306 13.6 9.69306 10.48 9.79306C11.13 9.09306 11.94 8.40306 12.85 7.75306ZM9.42 12.1531C9.23 12.1631 9.05 12.1631 8.84 12.1731C9.05 11.6831 9.34 11.1931 9.72 10.6931C9.81 10.6831 9.9 10.6831 9.99 10.6831C10.08 10.6831 10.16 10.6931 10.23 10.7131C10.3 10.7231 10.37 10.7531 10.4 10.7831C10.44 10.8231 10.44 10.8731 10.44 10.9131C10.43 10.9631 10.41 11.0231 10.36 11.0731C10.05 11.4331 9.74 11.7931 9.42 12.1531ZM8.51 13.8831C8.93 13.7031 9.29 13.4631 9.51 13.2131C10.15 12.4931 10.78 11.7631 11.41 11.0431C11.59 10.8331 11.65 10.6331 11.59 10.4931C14.11 10.4131 16.63 10.3331 19.15 10.2531C18.79 10.8131 18.72 11.3431 18.97 11.7731C15.7 13.0731 12.44 14.3531 9.17 15.6231C8.75 15.1031 8.54 14.5131 8.51 13.8831ZM8.76 18.3331C8.64 18.4031 8.52 18.4731 8.39 18.5331C6.67 18.5631 4.94 18.5931 3.21 18.6231C3.53 18.2631 3.84 17.9031 4.16 17.5431C4.35 17.3231 4.85 17.1331 5.25 17.1231C6.06 17.1031 6.88 17.0931 7.68 17.0731C8.06 17.4131 8.54 17.7031 9.09 17.9631C8.99 18.0931 8.87 18.2131 8.76 18.3331ZM11.12 17.0331C11 16.9731 10.87 16.9231 10.77 16.8631C10.7 16.6831 10.48 16.5531 10.14 16.5031C9.98 16.3831 9.82 16.2631 9.67 16.1431C12.93 14.8731 16.19 13.5831 19.46 12.2831C19.48 12.3031 19.52 12.3131 19.55 12.3231C16.75 13.9031 13.93 15.4731 11.12 17.0331ZM12.1 17.4131C14.91 15.8631 17.72 14.2831 20.51 12.6931C20.86 12.7831 21.24 12.8331 21.67 12.8531C20.17 14.6131 18.66 16.3631 17.15 18.1231C15.19 18.1031 13.48 17.8731 12.1 17.4131ZM18.06 20.9331C16.26 20.9531 14.46 20.9731 12.65 21.0031C12.97 20.6331 13.29 20.2731 13.6 19.9031C13.8 19.6731 14.3 19.4831 14.7 19.4831C16.02 19.4531 17.33 19.4431 18.63 19.4231C19.03 19.4131 19.2 19.6031 19.01 19.8231C18.7 20.1931 18.38 20.5631 18.06 20.9331ZM18.51 18.1031C20.02 16.3431 21.53 14.5831 23.03 12.8131C23.48 12.7731 23.98 12.6931 24.49 12.5831C24.65 14.1131 24.82 15.6431 24.96 17.1731C22.74 17.7031 20.53 18.0231 18.51 18.1031ZM26.78 16.6931C26.74 16.7031 26.69 16.7231 26.66 16.7231C26.49 15.1931 26.32 13.6631 26.16 12.1331C26.21 12.1231 26.27 12.1031 26.31 12.0931C27.44 13.2931 28.58 14.5031 29.72 15.7131C29.49 15.8131 29.25 15.8831 29 15.9731C28.64 15.9831 28.24 16.0631 27.84 16.1931C27.43 16.3231 27.07 16.4931 26.78 16.6931ZM32.47 16.5031C32.87 16.4831 33.04 16.6731 32.85 16.9131C32.53 17.2831 32.22 17.6631 31.91 18.0331C30.21 18.0631 28.49 18.0931 26.79 18.1231C26.78 18.0231 26.78 17.9231 26.77 17.8231C26.8 17.7831 26.82 17.7531 26.85 17.7131C28.07 17.3631 29.24 16.9731 30.41 16.5431C31.1 16.5231 31.78 16.5131 32.47 16.5031ZM31.14 15.1531C30.01 13.9231 28.86 12.7131 27.71 11.5131C28.71 11.0431 29.56 10.4831 30.15 9.91306C32.69 9.83306 35.22 9.75306 37.74 9.67306C37.41 9.84306 37.14 10.0431 36.95 10.2731C36.33 11.0331 35.71 11.7831 35.08 12.5431C34.85 12.8031 34.84 13.0431 34.95 13.2231C33.79 13.9131 32.51 14.5631 31.14 15.1531ZM37.63 11.3631C37.44 11.3731 37.25 11.3731 37.05 11.3831C37.37 10.9931 37.68 10.6231 37.99 10.2431C38.18 10.0031 38.67 9.80306 39.08 9.79306C39.17 9.78306 39.25 9.78306 39.34 9.78306C38.86 10.3031 38.27 10.8431 37.63 11.3631ZM30.81 9.14306C31.16 8.56306 31.21 8.03306 30.97 7.59306C32.74 6.86306 34.51 6.13306 36.26 5.39306C36.12 5.57306 35.97 5.75306 35.82 5.92306C35.6 6.20306 35.57 6.45306 35.73 6.64306C35.92 6.81306 36.28 6.90306 36.75 6.89306C38.06 6.84306 39.37 6.79306 40.66 6.75306C40.85 6.75306 41.06 6.71306 41.27 6.67306C41.06 7.35306 40.7 8.07306 40.13 8.83306C37.02 8.92306 33.91 9.03306 30.81 9.14306ZM42.45 11.2231C41.54 11.2531 40.63 11.2731 39.72 11.3031C40.34 10.7831 40.89 10.2431 41.37 9.71306C41.91 9.70306 42.45 9.69306 42.99 9.67306C43.09 9.66306 43.18 9.67306 43.25 9.69306C43.31 9.71306 43.38 9.74306 43.41 9.78306C43.45 9.81306 43.46 9.86306 43.45 9.91306C43.45 9.96306 43.42 10.0231 43.38 10.0731C43.08 10.4531 42.76 10.8431 42.45 11.2231Z" fill="url(#paint0_linear_390_111)"/>
<defs>
<linearGradient id="paint0_linear_390_111" x1="25.6684" y1="-20.5726" x2="26.1684" y2="23.4274" gradientUnits="userSpaceOnUse">
<stop stop-color="#E8E8E8" stop-opacity="0"/>
<stop offset="1" stop-color="#737373"/>
</linearGradient>
</defs>
</svg>
