<svg width="44" height="21" viewBox="0 0 44 21" fill="none" xmlns="http://www.w3.org/2000/svg">
<path d="M19.3041 8.36548C18.5263 8.38365 17.6689 8.55623 16.7674 8.84689C15.8835 9.14663 15.035 9.55536 14.3102 10.0368C13.5942 10.5091 13.0462 11.0359 12.7192 11.5355C12.4186 12.026 12.3479 12.4892 12.5512 12.8343C12.7368 13.1886 13.1788 13.4247 13.8063 13.5156C14.4427 13.5973 15.2294 13.5247 16.0868 13.3248C16.9618 13.1159 17.8546 12.7708 18.6677 12.3439C19.4721 11.8988 20.1703 11.3901 20.6565 10.8724C21.3106 10.1821 21.5315 9.5372 21.2664 9.06488C21.01 8.59256 20.3029 8.33824 19.3041 8.36548Z" fill="url(#paint0_linear_390_97)"/>
<path d="M35.4263 8.72881C32.536 8.80147 29.6456 8.85597 26.7465 8.91955C26.1631 8.93772 25.4648 9.11029 24.7931 9.40095C24.1302 9.68253 23.538 10.064 23.1667 10.4637C21.7525 11.9533 20.3471 13.4429 18.9417 14.9416C15.0703 14.987 11.1989 15.0506 7.33628 15.1051C9.84653 12.3166 12.3833 9.52811 14.9289 6.73962C20.8067 5.04109 26.7465 3.31531 32.7393 1.58045C35.7533 3.12457 38.7143 4.69593 41.6312 6.27638C42.409 5.82223 43.2045 5.359 44 4.91393C40.9683 3.27898 37.8747 1.6622 34.728 0.0635813C34.6131 0.0181661 34.4628 0 34.2861 0C34.0916 0.00908304 33.8795 0.0363322 33.6673 0.0999135C27.1442 1.97102 20.6918 3.84213 14.319 5.69507C14.0804 5.75865 13.8417 5.85856 13.6472 5.97664C13.4528 6.08564 13.276 6.22189 13.1523 6.35813C8.71515 11.2357 4.34873 16.1133 0 21C0.680595 20.9909 1.37003 20.9818 2.05946 20.9818C3.37646 19.5195 4.69345 18.0389 6.01045 16.5766C14.3986 16.4676 22.8043 16.3676 31.219 16.2677C29.7429 17.7846 28.2756 19.3015 26.8172 20.8183C27.4978 20.8093 28.1961 20.8002 28.8855 20.8002C31.5902 18.0117 34.3214 15.2141 37.0703 12.4256C38.0779 11.4174 38.4757 10.4546 38.1575 9.76427C37.8393 9.07396 36.867 8.70156 35.4263 8.72881Z" fill="url(#paint1_linear_390_97)"/>
<defs>
<linearGradient id="paint0_linear_390_97" x1="258.897" y1="-381.178" x2="258.897" y2="178.033" gradientUnits="userSpaceOnUse">
<stop stop-color="#E1E1E1" stop-opacity="0"/>
<stop offset="1" stop-color="#57564E"/>
</linearGradient>
<linearGradient id="paint1_linear_390_97" x1="30.2555" y1="-11.4792" x2="30.2555" y2="22.5797" gradientUnits="userSpaceOnUse">
<stop stop-color="#E1E1E1" stop-opacity="0"/>
<stop offset="1" stop-color="#737373"/>
</linearGradient>
</defs>
</svg>
