<svg width="28" height="28" viewBox="0 0 28 28" fill="none" xmlns="http://www.w3.org/2000/svg">
<path d="M1.0053 6.01428e-05C0.453347 0.836926 0.317266 1.86491 0.530529 3.05206C0.784775 4.46776 1.55417 6.06314 2.66619 7.56525C4.89036 10.5695 8.48054 13.1665 11.6745 13.5603L11.8978 13.5886L12.0416 13.7597L23.7947 27.8634C24.9661 28.1417 25.7225 27.9684 26.1158 27.5812C26.5121 27.191 26.6949 26.4376 26.4013 25.2419L1.0053 6.01428e-05ZM23.7097 0.139187L17.1417 6.66827C16.4152 7.39026 16.4089 8.1847 16.784 9.05274L16.9392 9.41199L16.6554 9.68278L14.4497 11.7738L16.2411 13.5546L18.3353 11.3563L18.6077 11.0704L18.969 11.2265C19.887 11.6198 20.7575 11.6037 21.432 10.9332L28 4.40409L27.1468 3.55597L22.8753 7.8003L22.077 7.00496L26.3466 2.76075L25.4367 1.85601L21.1672 6.10033L20.3669 5.30493L24.6365 1.06072L23.7097 0.139187ZM11.3585 14.7055L0.135056 25.351C-0.14189 26.4914 0.0355374 27.2037 0.409399 27.5718C0.783382 27.94 1.50677 28.109 2.63974 27.8369L13.1256 16.8267L11.3585 14.7055Z" fill="url(#paint0_linear_387_66)"/>
<defs>
<linearGradient id="paint0_linear_387_66" x1="14" y1="0" x2="14" y2="28" gradientUnits="userSpaceOnUse">
<stop stop-color="#01A96E"/>
<stop offset="1" stop-color="#005032"/>
</linearGradient>
</defs>
</svg>
